<?xml version="1.0" encoding="UTF-8"?>
<!DOCTYPE svg PUBLIC "-//W3C//DTD SVG 1.1//EN" "http://www.w3.org/Graphics/SVG/1.1/DTD/svg11.dtd">
<!-- Creator: CorelDRAW 2020 (64-Bit) -->
<svg xmlns="http://www.w3.org/2000/svg" xml:space="preserve" width="158.204mm" height="162.842mm" version="1.1" style="shape-rendering:geometricPrecision; text-rendering:geometricPrecision; image-rendering:optimizeQuality; fill-rule:evenodd; clip-rule:evenodd"
viewBox="0 0 15820.4 16284.2"
 xmlns:xlink="http://www.w3.org/1999/xlink"
 xmlns:xodm="http://www.corel.com/coreldraw/odm/2003">
 <defs>
  <style type="text/css">
   <![CDATA[
    .str0 {stroke:#003778;stroke-width:7.62;stroke-miterlimit:10}
    .str1 {stroke:#0052B4;stroke-width:7.62;stroke-miterlimit:10}
    .fil11 {fill:#FEFEFE;fill-rule:nonzero}
    .fil12 {fill:#606062;fill-rule:nonzero}
    .fil22 {fill:#FCE0E1;fill-rule:nonzero}
    .fil16 {fill:#F69FA5;fill-rule:nonzero}
    .fil20 {fill:#F48E92;fill-rule:nonzero}
    .fil17 {fill:#F7F7F6;fill-rule:nonzero}
    .fil0 {fill:#EFEFEF;fill-rule:nonzero}
    .fil10 {fill:#E5E6E5;fill-rule:nonzero}
    .fil1 {fill:#E0E1E0;fill-rule:nonzero}
    .fil23 {fill:#DBF0EE;fill-rule:nonzero}
    .fil9 {fill:#D9DAD9;fill-rule:nonzero}
    .fil24 {fill:#CFEAE6;fill-rule:nonzero}
    .fil21 {fill:#AFDEDD;fill-rule:nonzero}
    .fil18 {fill:#6F7374;fill-rule:nonzero}
    .fil3 {fill:#42616A;fill-rule:nonzero}
    .fil27 {fill:#366E73;fill-rule:nonzero}
    .fil2 {fill:#384E55;fill-rule:nonzero}
    .fil4 {fill:#00B3A9;fill-rule:nonzero}
    .fil25 {fill:#2B5D61;fill-rule:nonzero}
    .fil8 {fill:#2C3C43;fill-rule:nonzero}
    .fil15 {fill:#00B1A4;fill-rule:nonzero}
    .fil19 {fill:#273035;fill-rule:nonzero}
    .fil14 {fill:#00AD98;fill-rule:nonzero}
    .fil13 {fill:#00AB93;fill-rule:nonzero}
    .fil28 {fill:#009D89;fill-rule:nonzero}
    .fil26 {fill:#007364;fill-rule:nonzero}
    .fil5 {fill:#003778;fill-rule:nonzero}
    .fil6 {fill:#0052B4;fill-rule:nonzero}
    .fil7 {fill:#47BCFF;fill-rule:nonzero}
   ]]>
  </style>
 </defs>
 <g id="Layer_x0020_1">
  <metadata id="CorelCorpID_0Corel-Layer"/>
  <path class="fil0" d="M13497.46 8810.34c3089.1,1710.41 3089.1,4483.52 -0.03,6193.9 -1544.2,854.99 -3567.98,1282.58 -5591.87,1282.8l-3.04 0c-2023.89,-0.21 -4047.65,-427.8 -5591.82,-1282.77 -1544.56,-855.2 -2316.84,-1976.08 -2316.83,-3096.95 0,-1120.87 772.29,-2241.74 2316.87,-3096.95 3089.13,-1710.37 8097.59,-1710.4 11186.72,-0.03z"/>
  <path class="fil1" d="M15024.11 11229.51l-4409.44 2547.13c-32.7,18.91 -85.76,18.91 -118.5,0l-6357.73 -3670.65c-32.73,-18.91 -32.73,-49.53 0,-68.41l4409.44 -2547.16c32.71,-18.87 85.73,-18.87 118.47,0l6357.76 3670.69c32.74,18.87 32.74,49.49 0,68.4z"/>
  <path class="fil1" d="M6650.33 14753.68c1034.41,-597.24 1034.41,-1565.48 0,-2162.69 -1034.38,-597.22 -2711.49,-597.22 -3745.88,0 -1034.38,597.21 -1034.38,1565.48 0,2162.69 1034.39,597.19 2711.5,597.19 3745.88,0z"/>
  <path class="fil1" d="M9476.85 12750.48c814.22,-470.11 814.22,-1232.25 0,-1702.33 -814.21,-470.08 -2134.3,-470.08 -2948.51,0 -814.18,470.08 -814.18,1232.25 0,1702.33 814.21,470.08 2134.3,470.08 2948.51,0z"/>
  <path class="fil1" d="M13564.74 14046.83c511.07,-295.06 511.07,-773.46 0,-1068.53 -511.07,-295.1 -1339.71,-295.1 -1850.78,0 -511.07,295.07 -511.07,773.47 0,1068.53 511.07,295.07 1339.71,295.07 1850.78,0z"/>
  <path class="fil2" d="M10710.77 9226.3l0 3913.82c0,25.2 -17.68,55.81 -39.48,68.41l-84 48.47c-21.8,12.59 -57.18,12.59 -78.98,0l-83.97 -48.47c-21.8,-12.6 -39.51,-43.21 -39.51,-68.41l0 -3913.82c0,-25.19 17.71,-35.39 39.51,-22.79l83.97 48.47c21.8,12.59 57.18,12.59 78.98,0l84 -48.47c21.8,-12.6 39.48,-2.4 39.48,22.79z"/>
  <path class="fil3" d="M10508.31 13257l-83.97 -48.47c-21.8,-12.6 -39.51,-43.21 -39.51,-68.41l0 -3913.82c0,-25.19 17.71,-35.39 39.51,-22.79l83.97 48.47c21.8,12.59 39.51,43.22 39.51,68.4l-0.04 3913.82c0,25.2 -17.67,35.39 -39.47,22.8z"/>
  <path class="fil2" d="M14291.95 7157.47l0 3913.82c0,25.22 -17.67,55.81 -39.47,68.4l-84.03 48.51c-21.81,12.6 -57.15,12.6 -78.99,0l-83.96 -48.51c-21.8,-12.59 -39.48,-43.18 -39.48,-68.4l0 -3913.82c0,-25.19 17.68,-35.39 39.48,-22.83l83.99 48.51c21.81,12.59 57.15,12.59 78.96,0l84.03 -48.51c21.8,-12.56 39.47,-2.36 39.47,22.83z"/>
  <path class="fil3" d="M14089.46 11188.2l-83.96 -48.51c-21.8,-12.59 -39.48,-43.18 -39.48,-68.4l0 -3913.82c0,-25.19 17.68,-35.39 39.48,-22.83l83.99 48.51c21.81,12.59 39.48,43.22 39.48,68.37l0 3913.86c0,25.19 -17.67,35.42 -39.51,22.82z"/>
  <path class="fil2" d="M5887.9 6443.16l0 3913.86c0,25.19 -17.7,55.81 -39.51,68.41l-83.99 48.47c-21.84,12.59 -57.19,12.59 -78.99,0l-84 -48.47c-21.8,-12.6 -39.47,-43.22 -39.47,-68.41l0 -3913.86c0,-25.18 17.67,-35.38 39.47,-22.82l84 48.51c21.8,12.59 57.19,12.59 78.99,0l83.99 -48.51c21.81,-12.56 39.51,-2.36 39.51,22.82z"/>
  <path class="fil3" d="M5685.41 10473.9l-84 -48.47c-21.8,-12.6 -39.47,-43.22 -39.47,-68.41l0 -3913.86c0,-25.18 17.67,-35.38 39.47,-22.82l84 48.51c21.8,12.59 39.48,43.21 39.48,68.4l0 3913.82c0,25.19 -17.68,35.42 -39.48,22.83z"/>
  <path class="fil4" d="M15071.13 7435.88l0 -28.64c0,-45.87 -32.17,-101.6 -71.86,-124.54l-6315.28 -3642.53c-39.69,-22.93 -104.07,-22.93 -143.76,0l-3885.04 2243.77c-39.68,22.93 -71.86,78.67 -71.86,124.53l0 28.65c0,45.82 32.18,101.56 71.86,124.49l6315.29 3642.54c39.69,22.93 104.03,22.93 143.76,0l3885.03 -2243.77c39.69,-22.93 71.86,-78.67 71.86,-124.5z"/>
  <path class="fil5 str0" d="M11042.34 9821.36c-26.03,0 -52.03,-5.75 -71.86,-17.21l-422.66 -243.77 -162.99 -94.02 -3949.77 -2278.16c2.01,-3.04 4.06,-6.11 6.07,-9.14l0.39 -0.6c2.26,-3.39 4.48,-6.74 6.74,-10.13 18.73,-28.15 37.07,-55.59 55.14,-82.55 8.53,-12.77 17.18,-25.68 25.54,-38.1l4441.54 2561.81c19.83,11.46 45.86,17.21 71.86,17.21 26,0 52.04,-5.75 71.9,-17.21l3332.76 -1924.8 0 0 -3332.73 1924.97c-19.93,11.61 -45.93,17.15 -71.93,17.15l0 194.55z"/>
  <path class="fil5" d="M11042.34 9626.81l0 194.77c26,0 52,-6.07 71.93,-17.15l3884.9 -2243.88c39.83,-23.25 71.93,-78.6 71.93,-124.53l0 -28.75c0,-40.39 -24.91,-89.08 -58.67,-115.11 26,22.15 21.59,53.13 -13.26,73.62l-3884.9 2243.88c-19.93,11.61 -45.93,17.15 -71.93,17.15z"/>
  <path class="fil5 str0" d="M11042.34 9821.58l0 -194.77c26,0 52,-5.54 71.93,-17.15l3332.73 -1924.97 168.7 97.34 -486.73 281.12 -162.95 94.13 -2851.75 1647.15c-19.93,11.08 -45.93,17.15 -71.93,17.15z"/>
  <path class="fil6" d="M14999.27 7365.71l-3885.03 2243.78c-39.73,22.93 -104.07,22.93 -143.76,0l-6315.29 -3642.54c-39.68,-22.93 -39.68,-60.08 0,-83.01l3885.04 -2243.77c39.69,-22.93 104.07,-22.93 143.76,0l6315.28 3642.53c39.69,22.94 39.69,60.08 0,83.01z"/>
  <path class="fil6" d="M11042.34 9626.7c-26,0 -52.03,-5.75 -71.86,-17.21l-4441.54 -2561.81c0.03,-0.07 0.1,-0.17 0.17,-0.24l0.07 -0.14c81.28,-120.97 154.98,-306.07 183.98,-498.41l183.41 163.51c90.38,-73.55 176.63,-141.11 216.43,-164.81 31.85,-18.95 63.81,-32.46 96.16,-42.51l2332.32 1344.71c14.22,8.19 32.81,12.28 51.44,12.28 18.7,0 37.43,-4.13 51.72,-12.38l920.46 -532.94c28.44,-16.51 28.44,-43.18 -0.07,-59.59l-2719.35 -1567.92c-14.22,-8.18 -32.84,-12.27 -51.47,-12.27 -18.7,0 -37.43,4.12 -51.68,12.38l-27.45 15.91c-31.68,-21.31 -62.83,-43.92 -97.4,-59.73 -42.4,-19.43 -88.83,-27.9 -135.61,-27.9 -33.34,0 -66.88,4.3 -99.23,12.03 -26.82,6.38 -52.92,14.92 -78.5,25.08 -48.57,19.3 -95.07,44.38 -140.16,71.05 -170.74,101.07 -302.71,318.56 -464.43,442.81 -35.03,-129.08 -107.38,-241.66 -231.63,-315.32 -119.52,-70.87 -169.12,-91.54 -331.86,-169.33 -0.53,0.18 -1.13,0.35 -1.66,0.53l169.97 -192.19 -405.38 -326.82 2641.04 -1525.3c19.86,-11.47 45.86,-17.22 71.9,-17.22 26,0 52.03,5.75 71.86,17.22l94.29 54.36 0 947.56c0,12.35 2.33,25.44 6.57,38.42 11.32,35.17 36.33,69.46 65.37,86.25 41.09,23.71 98.77,57.01 170.21,98.25l-377.05 217.67 1445.47 834.56 -357.15 202.71c0,0 0.21,35.31 0.21,80.4 0.04,45.08 29.85,90.17 89.43,124.56l578.06 334.26c59.59,34.4 137.73,51.61 215.83,51.61 78.07,0 156.18,-17.21 215.76,-51.61l270.34 -157.37 1590.71 918.38 809.73 -467.5 -539.79 -311.64 0 -114.97 0.04 -0.04 0 -418.39 619.12 357.11 0 655.71c0,35.81 25.15,79.17 56.02,96.98l809.84 467.25 -3332.76 1924.8c-19.86,11.46 -45.9,17.21 -71.9,17.21zm766.55 -2228.39c-64.63,0 -128.55,12.35 -178.68,37.5l-677.09 367.1c-108.19,54.22 -110.95,147.21 -6.13,207.75l332.49 191.91c46.81,27.06 105.55,40.29 164.92,40.29 73.45,0 147.85,-20.25 201.97,-59.62l548.39 -400.44c97.83,-71.19 92.29,-178.08 -12.42,-238.76l-166.69 -96.59c-56.19,-32.56 -131.93,-49.14 -206.76,-49.14z"/>
  <path class="fil7" d="M9592.92 7862.07c-18.63,0 -37.22,-4.09 -51.44,-12.28l-2332.32 -1344.71c77.26,-24.03 156.64,-28.4 242.19,-40.78 84.24,-12.21 166.01,-37.12 247.43,-61.95 28.68,-8.72 60.61,-20.22 72.89,-47.56 15.63,-34.6 -11.71,-76.37 -47.03,-90.27 -37.85,-14.93 -87.66,-11.08 -128.27,-17.61 -4.2,-0.67 -9.35,-0.91 -15.13,-0.91 -8.19,0 -17.68,0.49 -27.69,0.98 -10.02,0.5 -20.57,0.99 -30.84,0.99 -26.95,0 -52.14,-3.38 -61.35,-19.15 -9.8,-16.69 2.33,-37.36 14.47,-52.46 76.06,-94.9 172.33,-196.57 294.14,-225.07 37.75,-8.86 77.16,-17.96 107.14,-42.55 29.99,-24.59 46.89,-69.95 26.99,-103.26 -19.9,-33.23 -63.96,-39.68 -100.51,-52.46 -31.85,-11.07 -60.39,-28.92 -88.51,-47.76l27.45 -15.91c14.25,-8.26 32.98,-12.38 51.68,-12.38 18.63,0 37.25,4.09 51.47,12.27l2719.35 1567.92c28.51,16.41 28.51,43.08 0.07,59.59l-920.46 532.94c-14.29,8.25 -33.02,12.38 -51.72,12.38z"/>
  <path class="fil8" d="M6877.87 6127.82c0,-10.8 7.09,-21.56 21.34,-29.81l864.77 -499.18c28.47,-16.44 74.64,-16.41 103.15,0.03l2638.64 1525.94c14.21,8.26 21.34,19.02 21.3,29.78 0,10.76 0,79.94 0,90.66 0.04,10.79 -7.09,21.59 -21.37,29.77l-864.31 499.15c-28.54,16.4 -74.72,16.37 -103.22,-0.11l-2638.96 -1523.47c-14.18,-8.18 -21.3,-18.91 -21.34,-29.67 -0.07,-10.83 0,-82.33 0,-93.09z"/>
  <path class="fil2" d="M9641.39 7681.17l864.31 -496.86c28.54,-16.4 28.57,-43.03 0.07,-59.51l-2638.64 -1525.94c-28.51,-16.44 -74.65,-16.44 -103.15,-0.03l-864.77 499.18c-28.47,16.47 -28.47,43.11 0,59.58l2638.96 1523.47c28.5,16.48 74.68,16.51 103.22,0.11z"/>
  <path class="fil8" d="M9593.09 7693.44l0 92.71c17.47,-0.38 34.96,-4.37 48.48,-11.92l863.98 -499.11c14.29,-8.33 21.45,-19.05 21.45,-29.77l0 -90.92c0,10.69 -7.16,21.42 -21.45,29.78l-863.98 497.13c-13.52,7.52 -31.01,11.72 -48.48,12.1z"/>
  <path class="fil7" d="M10247.71 7141.35l0.7 -1.13 36.31 -21.45 72.49 41.84 -37.22 22.96 -72.07 -41.59 -0.21 -0.63zm-118.46 -68.44l0.63 -1.13 36.34 -21.45 72.46 41.84 -37.22 22.93 -72.07 -41.56 -0.14 -0.63zm-78.53 182.17l0.63 -1.09 85.59 -49.43 72.46 41.81 -86.19 51.12 -72.28 -41.77 -0.21 -0.64zm-40.01 -250.61l0.6 -1.17 36.37 -21.41 72.43 41.84 -37.18 22.93 -72.08 -41.56 -0.14 -0.63zm-78.53 182.17l0.64 -1.09 85.55 -49.42 72.46 41.83 -86.15 51.09 -72.28 -41.77 -0.22 -0.64zm-40 -250.61l0.6 -1.13 36.34 -21.45 72.46 41.84 -37.22 22.93 -72.07 -41.56 -0.11 -0.63zm-78.49 182.17l0.56 -1.05 85.58 -49.46 72.47 41.84 -86.19 51.08 -72.25 -41.77 -0.17 -0.64zm-15.49 145.81l0.63 -1.1 85.62 -49.46 72.39 41.84 -86.14 51.09 -72.29 -41.77 -0.21 -0.6zm-15.35 145.77l0.57 -1.13 219.57 -126.76 72.42 41.84 -220.06 128.48 -72.36 -41.8 -0.14 -0.63zm-68.61 -536.72l0.63 -1.13 85.59 -49.42 72.42 41.84 -86.15 51.08 -72.35 -41.77 -0.14 -0.6zm-19.12 176.71l0.6 -1.1 85.58 -49.42 72.43 41.84 -86.15 51.08 -72.25 -41.8 -0.21 -0.6zm-15.45 145.8l0.63 -1.1 85.59 -49.45 72.42 41.83 -86.15 51.09 -72.28 -41.74 -0.21 -0.63zm-15.38 145.77l0.59 -1.1 85.59 -49.42 72.39 41.84 -86.11 51.12 -72.32 -41.81 -0.14 -0.63zm-68.58 -536.72l0.63 -1.13 85.55 -49.42 72.46 41.84 -86.15 51.08 -72.35 -41.73 -0.14 -0.64zm-34.58 322.51l0.6 -1.09 85.66 -49.46 72.39 41.84 -86.19 51.08 -72.28 -41.74 -0.18 -0.63zm-9.45 -160.2l0.6 -1.16 85.55 -49.39 72.46 41.84 -86.15 51.08 -72.32 -41.73 -0.14 -0.64zm-5.93 305.97l0.64 -1.1 85.51 -49.46 72.43 41.88 -86.12 51.08 -72.32 -41.73 -0.14 -0.67zm-15.41 145.8l0.56 -1.13 85.58 -49.39 72.46 41.81 -86.18 51.11 -72.35 -41.76 -0.07 -0.64zm-15.49 145.8l0.63 -1.16 219.54 -126.72 72.46 41.81 -220.07 128.48 -72.42 -41.81 -0.14 -0.6zm-37.64 -828.32l0.56 -1.13 85.59 -49.42 72.46 41.84 -86.19 51.08 -72.28 -41.73 -0.14 -0.64zm-44.06 162.31l0.56 -1.16 85.58 -49.35 72.46 41.8 -86.18 51.08 -72.28 -41.77 -0.14 -0.6zm-5.93 305.97l0.6 -1.1 85.55 -49.42 72.42 41.8 -86.11 51.12 -72.32 -41.77 -0.14 -0.63zm-9.56 -160.2l0.63 -1.13 85.55 -49.39 72.46 41.84 -86.15 51.09 -72.35 -41.77 -0.14 -0.64zm-5.89 306l0.6 -1.13 85.58 -49.39 72.46 41.81 -86.18 51.08 -72.32 -41.73 -0.14 -0.64zm-15.45 145.8l0.59 -1.16 85.55 -49.35 72.5 41.8 -86.18 51.12 -72.32 -41.81 -0.14 -0.6zm-63.89 -843.45l0.63 -1.13 85.55 -49.42 72.39 41.83 -86.08 51.09 -72.35 -41.74 -0.14 -0.63zm-17.85 177.45l0.6 -1.13 85.58 -49.43 72.46 41.84 -86.18 51.08 -72.32 -41.73 -0.14 -0.63zm-15.46 145.8l0.6 -1.17 85.59 -49.38 72.46 41.8 -86.15 51.12 -72.35 -41.77 -0.15 -0.6zm-5.89 305.96l0.57 -1.13 85.58 -49.39 72.5 41.84 -86.15 51.09 -72.36 -41.77 -0.14 -0.64zm-79.3 -697.65l0.56 -1.13 85.59 -49.42 72.39 41.84 -86.12 51.08 -72.32 -41.74 -0.1 -0.63zm-33.37 323.21l0.63 -1.12 85.59 -49.39 72.46 41.84 -86.12 51.08 -72.39 -41.77 -0.17 -0.64zm-21.31 451.81l0.6 -1.1 85.55 -49.46 190.99 110.32 -86.15 51.04 -190.89 -110.2 -0.1 -0.6zm-44.35 -644.42l0.6 -1.13 85.59 -49.35 128.62 74.22 -86.18 51.08 -128.41 -74.19 -0.22 -0.63zm-19.54 -199.04l0.6 -1.13 85.58 -49.42 72.39 41.84 -86.11 51.08 -72.35 -41.73 -0.11 -0.64zm-64.21 614.79l0.6 -1.13 85.62 -49.39 72.43 41.84 -86.15 51.08 -72.35 -41.77 -0.15 -0.63zm-15.45 145.83l0.67 -1.19 85.59 -49.36 72.39 41.84 -86.19 51.08 -72.28 -41.77 -0.18 -0.6zm-19.33 -630.06l0.6 -1.09 85.55 -49.35 72.5 41.8 -86.19 51.08 -72.25 -41.77 -0.21 -0.67zm-19.54 -199l0.6 -1.13 85.55 -49.39 72.49 41.81 -86.18 51.08 -72.32 -41.77 -0.14 -0.6zm-70.73 301.63l0.59 -1.13 85.59 -49.43 72.39 41.84 -86.18 51.09 -72.25 -41.74 -0.14 -0.63zm-8.86 459l0.6 -1.13 85.58 -49.43 72.36 41.84 -86.15 51.08 -72.28 -41.76 -0.11 -0.6zm-19.44 -630.03l0.64 -1.09 85.55 -49.39 72.49 41.8 -86.18 51.08 -72.29 -41.77 -0.21 -0.63zm-71.08 -228.85l0.56 -1.09 85.59 -49.42 72.46 41.83 -86.15 51.09 -72.36 -41.77 -0.1 -0.64zm-3.46 495.23l0.64 -1.06 85.58 -49.46 66.18 38.21c4.62,2.68 12.42,4.3 20.88,4.3 8.86,0 16.87,-1.65 21.91,-4.55l112.36 -64.91 84.88 49.04 -219.99 128.48 -172.23 -99.41 -0.21 -0.64zm-15.7 -163.79l0.57 -1.13 85.58 -49.43 72.43 41.84 -86.08 51.09 -72.36 -41.77 -0.14 -0.6zm-8.92 458.96l0.6 -1.06 85.62 -49.46 72.39 41.84 -86.15 51.09 -72.25 -41.77 -0.21 -0.64zm-19.37 -630.02l0.63 -1.1 85.59 -49.39 72.42 41.84 -86.15 51.08 -72.28 -41.76 -0.21 -0.67zm-71.12 -228.78l0.6 -1.13 85.58 -49.42 72.46 41.84 -86.18 51.08 -72.32 -41.77 -0.14 -0.6zm-3.42 495.16l0.6 -1.1 85.62 -49.42 72.42 41.88 -86.18 51.08 -72.25 -41.77 -0.21 -0.67zm-15.74 -163.76l0.64 -1.13 85.58 -49.42 72.46 41.84 -86.18 51.08 -72.36 -41.77 -0.14 -0.6zm-28.22 -171.03l0.57 -1.13 85.65 -49.39 72.39 41.84 -86.18 51.09 -72.25 -41.77 -0.18 -0.64zm-27.62 448.21l0.67 -1.13 85.55 -49.43 228.42 131.91 -86.18 51.08 -228.29 -131.83 -0.17 -0.6zm-21.63 142.17l0.6 -1.1 85.59 -49.46 116.1 67.07 -86.19 51.08 -115.99 -66.96 -0.11 -0.63zm-21.9 -819.22l0.6 -1.1 85.54 -49.42 72.5 41.84 -86.18 51.08 -72.32 -41.77 -0.14 -0.63zm-3.46 495.22l0.63 -1.09 85.66 -49.42 72.39 41.84 -86.19 51.08 -72.28 -41.81 -0.21 -0.6zm-15.7 -163.79l0.63 -1.13 85.55 -49.42 72.46 41.84 -86.14 51.08 -72.36 -41.77 -0.14 -0.6zm-28.26 -171.03l0.67 -1.16 85.52 -49.32 72.42 41.77 -86.15 51.12 -72.28 -41.77 -0.18 -0.64zm-27.62 448.17l0.63 -1.09 85.59 -49.43 72.42 41.84 -86.14 51.09 -72.29 -41.77 -0.21 -0.64zm-40.32 131.41l0.56 -1.16 85.59 -49.36 91.19 52.64 -86.15 51.08 -91.09 -52.56 -0.1 -0.64zm-3.18 -808.42l0.6 -1.1 85.55 -49.42 72.5 41.84 -86.22 51.08 -72.29 -41.77 -0.14 -0.63zm-3.42 495.23l0.6 -1.13 85.62 -49.39 72.39 41.84 -86.15 51.08 -72.28 -41.77 -0.18 -0.63zm-15.7 -163.83l0.57 -1.1 85.58 -49.42 72.39 41.84 -86.11 51.08 -72.32 -41.77 -0.11 -0.63zm-28.29 -170.96l0.6 -1.13 85.62 -49.42 72.39 41.8 -86.15 51.12 -72.25 -41.77 -0.21 -0.6zm-27.59 448.17l0.64 -1.17 85.58 -49.38 72.39 41.87 -86.11 51.05 -72.32 -41.77 -0.18 -0.6zm-46.95 -181.82l0.63 -1.13 85.59 -49.39 72.42 41.84 -86.22 51.05 -72.21 -41.77 -0.21 -0.6zm-12.17 302.4l0.67 -1.17 85.55 -49.39 91.15 52.64 -86.11 51.12 -91.05 -52.6 -0.21 -0.6zm-3.6 -466.2l0.63 -1.13 85.59 -49.42 72.46 41.84 -86.19 51.08 -72.35 -41.77 -0.14 -0.6zm-28.22 -170.99l0.63 -1.16 85.58 -49.39 72.39 41.84 -86.18 51.08 -72.25 -41.77 -0.17 -0.6zm-4.2 -190.22l0.6 -1.09 85.58 -49.39 72.5 41.8 -86.19 51.09 -72.35 -41.77 -0.14 -0.64zm-23.39 638.35l0.63 -1.12 85.59 -49.39 72.39 41.84 -86.19 51.08 -72.28 -41.77 -0.14 -0.64zm-46.99 -181.82l0.6 -1.06 85.65 -49.46 72.36 41.88 -86.15 51.08 -72.25 -41.8 -0.21 -0.64zm-15.7 -163.76l0.6 -1.13 85.55 -49.42 72.46 41.84 -86.15 51.08 -72.35 -41.77 -0.11 -0.6zm-15.13 455.37l0.63 -1.09 85.55 -49.46 91.16 52.67 -86.22 51.08 -90.98 -52.57 -0.14 -0.63zm-13.09 -626.36l0.6 -1.16 85.58 -49.39 72.39 41.84 -86.15 51.08 -72.28 -41.77 -0.14 -0.6zm-4.24 -190.18l0.64 -1.16 85.55 -49.36 72.46 41.81 -86.15 51.08 -72.35 -41.77 -0.15 -0.6zm-23.35 638.32l0.6 -1.1 85.55 -49.42 72.39 41.84 -86.08 51.08 -72.35 -41.77 -0.11 -0.63zm-47.02 -181.79l0.63 -1.09 85.58 -49.43 72.43 41.84 -86.15 51.08 -72.28 -41.8 -0.21 -0.6zm-15.7 -163.8l0.56 -1.12 85.58 -49.39 72.47 41.8 -86.19 51.12 -72.28 -41.77 -0.14 -0.64zm-28.3 -171.02l0.64 -1.1 85.58 -49.42 72.43 41.84 -86.19 51.08 -72.24 -41.77 -0.22 -0.63zm-4.16 -190.15l0.6 -1.16 85.55 -49.39 72.5 41.84 -86.19 51.08 -72.32 -41.77 -0.14 -0.6zm-23.42 638.35l0.63 -1.09 85.59 -49.46 72.39 41.84 -86.19 51.08 -72.21 -41.77 -0.21 -0.6zm-46.96 -181.82l0.67 -1.16 85.55 -49.39 72.43 41.84 -86.19 51.11 -72.25 -41.76 -0.21 -0.64zm-15.73 -163.79l0.6 -1.13 85.58 -49.43 72.46 41.84 -86.18 51.08 -72.32 -41.76 -0.14 -0.6zm-28.26 -171l0.67 -1.16 85.55 -49.39 72.42 41.84 -86.18 51.08 -72.28 -41.77 -0.18 -0.6zm-4.2 -190.21l0.64 -1.1 85.62 -49.42 72.42 41.84 -86.18 51.08 -72.36 -41.77 -0.14 -0.63zm-23.35 638.35l0.6 -1.13 85.58 -49.39 72.39 41.84 -86.11 51.08 -72.32 -41.77 -0.14 -0.63zm-46.92 -181.79l0.6 -1.09 85.55 -49.46 72.39 41.84 -86.15 51.12 -72.29 -41.77 -0.1 -0.64zm-15.81 -163.79l0.6 -1.13 85.55 -49.43 72.5 41.84 -86.18 51.09 -72.32 -41.77 -0.15 -0.6zm-28.22 -171.03l0.6 -1.13 85.59 -49.39 72.39 41.81 -86.12 51.08 -72.32 -41.74 -0.14 -0.63zm-27.58 448.17l0.59 -1.13 85.55 -49.39 72.43 41.84 -86.11 51.08 -72.32 -41.77 -0.14 -0.63zm-46.89 -678.92l0.6 -1.1 85.58 -49.42 91.13 52.63 -86.19 51.12 -90.98 -52.63 -0.14 -0.6zm-0.14 497.17l0.67 -1.13 85.58 -49.46 72.39 41.84 -86.14 51.12 -72.29 -41.77 -0.21 -0.6zm-15.7 -163.83l0.6 -1.13 85.58 -49.39 72.47 41.8 -86.19 51.09 -72.32 -41.77 -0.14 -0.6zm-28.22 -171.03l0.6 -1.13 85.58 -49.39 72.39 41.81 -86.08 51.11 -72.35 -41.76 -0.14 -0.64zm-27.59 448.17l0.6 -1.13 85.55 -49.39 72.43 41.84 -86.19 51.12 -72.25 -41.81 -0.14 -0.63zm-46.95 -181.79l0.6 -1.16 85.55 -49.35 72.42 41.8 -86.18 51.12 -72.25 -41.77 -0.14 -0.64zm-15.81 -163.79l0.64 -1.13 85.55 -49.42 72.46 41.84 -86.19 51.08 -72.32 -41.77 -0.14 -0.6zm-28.18 -171.03l0.6 -1.13 85.54 -49.42 72.43 41.84 -86.11 51.12 -72.32 -41.77 -0.14 -0.64zm-27.63 448.21l0.64 -1.17 85.55 -49.39 72.39 41.84 -86.08 51.08 -72.36 -41.76 -0.14 -0.6zm-46.92 -181.83l0.6 -1.16 85.55 -49.35 72.43 41.8 -86.12 51.08 -72.32 -41.73 -0.14 -0.64zm-24.66 295.17l0.6 -1.09 85.59 -49.42 658.92 380.4 -86.22 51.11 -658.74 -380.36 -0.15 -0.64zm-34.78 -484.18l0.6 -1.13 85.58 -49.39 116.1 67.03 -86.14 51.08 -116 -66.96 -0.14 -0.63zm-12.24 302.4l0.67 -1.17 85.58 -49.39 72.39 41.84 -86.07 51.09 -72.36 -41.77 -0.21 -0.6zm-90.24 102.55l0.6 -1.09 85.55 -49.43 91.23 52.64 -86.19 51.08 -91.02 -52.6 -0.17 -0.6zm-28.22 -170.99l0.6 -1.13 85.58 -49.39 72.46 41.8 -86.18 51.09 -72.32 -41.77 -0.14 -0.6zm-3.28 -156.63l0.6 -1.13 85.54 -49.39 147.29 85.05 -86.08 51.12 -147.25 -85.02 -0.1 -0.63zm-105.8 248.35l0.6 -1.09 85.65 -49.39 91.12 52.6 -86.14 51.11 -91.02 -52.56 -0.21 -0.67zm-28.22 -170.99l0.63 -1.09 85.55 -49.43 91.19 52.67 -86.15 51.05 -91.08 -52.57 -0.14 -0.63zm-133.95 77.33l0.6 -1.06 85.54 -49.42 116.1 67.02 -86.07 51.05 -116 -66.92 -0.17 -0.67z"/>
  <path class="fil5" d="M12692.04 7420.18l-1590.71 -918.38 176.88 -102.98 7.3 -4.23c31.61,-18.28 57.5,-62.8 57.5,-99.66l0 -89.01c648.3,374.3 1216.91,702.56 1412.07,815.24 20.67,11.95 47.55,17.99 73.8,17.99 24.13,0 47.76,-5.12 65.61,-15.42 37.26,-21.48 67.49,-76.13 67.49,-122.03l0 -260.66 539.79 311.64 -809.73 467.5zm-2603.19 -1502.94l-1445.47 -834.56 377.05 -217.67c280.18,161.79 772.94,446.27 1312.76,757.91l0 88.62c0,36.69 -25.76,81.31 -57.54,99.66l-186.8 106.04z"/>
  <path class="fil1" d="M10399.4 6659.17l-578.06 -334.26c-59.58,-34.39 -89.39,-79.48 -89.43,-124.56 0,-45.09 -0.21,-80.4 -0.21,-80.4l543.95 -308.75c31.78,-18.35 57.54,-62.97 57.54,-99.66l0 -712.72 1009.68 583.43 0.04 712.71c0,36.69 -25.76,81.32 -57.54,99.66l-454.38 264.55c-119.17,68.83 -312.42,68.79 -431.59,0z"/>
  <path class="fil9" d="M11100.48 6421.19l0 80.04 185.03 -106.64c31.61,-18.28 57.5,-62.8 57.5,-99.66l0 -712.65 -192.37 -110.95c-3.98,48.83 -8.29,99.34 -12.31,148.49l134.94 78.07 0 556.86c0,36.86 -25.61,81.38 -57.5,99.66l-115.29 66.78z"/>
  <path class="fil0" d="M11273.27 6254.85c0,36.73 -25.75,81.32 -57.54,99.66l-384.63 224.3c-119.21,68.79 -312.46,68.82 -431.66,0.03l-578.35 -334.22c-119.2,-68.79 -119.2,-180.3 -0.03,-249.13l384.95 -224.44c31.75,-18.34 57.54,-62.97 57.54,-99.69l0 -556.86 1009.72 583.42 0 556.93z"/>
  <path class="fil10" d="M10088.82 5838.82l0 -0.11 117.19 -67.66c31.79,-18.34 57.54,-62.97 57.54,-99.69l0 -556.86 1009.75 583.42 0 556.93c0,36.73 -25.78,81.32 -57.57,99.66l-115.18 66.5 -1011.73 -582.19z"/>
  <path class="fil10" d="M9731.77 6119.98c0,0 0,35.21 0,80.44 0,45.15 29.92,89.99 89.43,124.56l578.13 334.08c57.15,33.2 131.24,49.82 205.99,51.16l0 -80.08c-74.75,-0.99 -148.84,-18.28 -205.99,-51.16l-578.13 -334.39c-59.51,-34.22 -89.43,-79.41 -89.43,-124.61z"/>
  <path class="fil3" d="M12894.49 7023.73c-37.28,21.52 -99.69,20.36 -139.41,-2.57 -496.43,-286.6 -3408.51,-1967.87 -3904.86,-2254.4 -39.73,-22.96 -71.9,-78.74 -71.9,-124.6l0 -3417.85c0,-45.86 30.23,-100.51 67.49,-122.03 37.25,-21.48 99.66,-20.35 139.38,2.58l3904.79 2254.43c39.72,22.96 71.93,78.7 71.93,124.6l0.07 3417.81c0,45.9 -30.23,100.55 -67.49,122.03z"/>
  <path class="fil2" d="M12755.08 7021.08l-3904.86 -2254.42c-39.73,-22.93 -71.94,-78.71 -71.94,-124.57l0 -3417.89c0,-45.86 32.21,-64.45 71.94,-41.52l3904.79 2254.43c39.75,22.93 71.93,78.7 71.93,124.6l0.07 3417.85c0,45.86 -32.21,64.46 -71.93,41.52z"/>
  <path class="fil9" d="M12765.63 7035.34c39.86,17.64 95.03,16.97 128.94,-2.65 37.18,-21.59 67.45,-76.09 67.45,-122.27l0 -384.39 -134.91 78.07 0 384.39c0,41.87 -26.56,60.82 -61.48,46.85z"/>
  <path class="fil11" d="M12827.01 6604.03l0 384.35c0,45.86 -32.21,64.45 -71.93,41.52l-3904.86 -2254.39c-39.73,-22.93 -71.94,-78.7 -71.94,-124.6l0 -384.38 4048.73 2337.5z"/>
  <path class="fil6" d="M12692.07 6311.58l-0.03 -2705.1c0,-27.52 -19.3,-61 -43.15,-74.72l-3692.38 -2131.8c-23.85,-13.79 -43.18,-2.61 -43.18,24.9l-0.11 2705.18c-0.03,27.51 19.3,60.99 43.15,74.75l3692.56 2131.73c23.84,13.76 43.14,2.61 43.14,-24.94z"/>
  <path class="fil6" d="M12668.19 6342.41c-5.79,0 -12.35,-1.9 -19.26,-5.89l-3692.56 -2131.73c-23.85,-13.76 -43.18,-47.24 -43.15,-74.75l0.11 -2705.18c0,-19.54 9.73,-30.83 23.88,-30.83 5.82,0 12.38,1.91 19.3,5.93l460.27 265.71 0 2176.43c0,44.06 30.97,97.4 68.89,119.31l3206.37 1851.16 0.03 499.01c0,19.54 -9.74,30.83 -23.88,30.83z"/>
  <path class="fil8" d="M12805.84 3490.52c12.95,22.61 20.92,48.19 21.27,71.12l0 3042.46 134.91 -78.07 0 -3042.14c0,-22.93 -8.33,-48.51 -21.31,-71.09l-134.87 77.72z"/>
  <path class="fil7" d="M11444.4 8242.86c-59.37,0 -118.11,-13.23 -164.92,-40.29l-332.49 -191.91c-104.82,-60.54 -102.06,-153.53 6.13,-207.75l677.09 -367.1c50.13,-25.15 114.05,-37.5 178.68,-37.5 74.83,0 150.57,16.58 206.76,49.14l166.69 96.59c104.71,60.68 110.25,167.57 12.42,238.76l-548.39 400.44c-54.12,39.37 -128.52,59.62 -201.97,59.62z"/>
  <path class="fil2" d="M12203.9 7608.81l-379.49 296.65 -280 219.11c-27.16,12.7 -58.27,19.69 -89.39,21.45 -47.34,2.65 -95.53,-6.56 -132.79,-28.04l-297.49 -171.77 -0.46 -0.42 -1.69 -0.99c-104.43,-60.75 -129.02,-201.83 -60.12,-301.03 2.86,-4.12 5.79,-8.18 8.79,-12.17 56.55,-76.23 140.68,-131.48 239.25,-151.62l150.74 -30.24c244.09,-49.53 444.33,-73.62 467.54,-57.85l372.88 216.04 2.23 0.88z"/>
  <path class="fil7" d="M11991.77 7774.76l21.27 -16.72 -334.57 -193.18 292.81 -90.63c-10.13,-5.86 -20.01,-11.57 -29.64,-17.11l-292.8 90.63 -199.53 -115.22c-12.46,2.33 -25.09,4.73 -37.82,7.16l580.28 335.07z"/>
  <path class="fil8" d="M11577.29 8106.58l1.77 -1.3 0.39 -0.46 266.45 -192.34 359.73 -259.85 0 -40.75 -1.73 -3.07 -2.23 -0.88c-26.7,-9.21 -182.7,37.68 -371.12,112.61l-124.88 49.53c-39.02,15.34 -74.93,36.79 -106.47,63.07 -89.85,74.05 -144.18,185.81 -144.18,306.32l0 6.56c31.12,-1.76 62.23,-8.75 89.39,-21.45l32.88 -17.99z"/>
  <path class="fil4" d="M12237.55 13429.54c-366.11,-377.76 -581.16,-1915.16 -224.08,-2214.77l1816.91 0c357.01,299.5 142.2,1836.37 -223.7,2214.41 -3.14,3.53 -6.7,6.92 -10.02,10.42 -4.19,4.16 -8.36,8.39 -12.59,12.44 -10.34,10.13 -21.31,20.04 -33.13,29.74l-8.71 6.99c-9,7.1 -17.85,14.22 -27.66,21.1 -15.59,11.18 -31.36,21.62 -47.31,30.59 -301.16,175.78 -789.41,175.78 -1090.54,0l-0.07 0c-16.08,-9.04 -31.92,-19.56 -47.66,-30.8 -9.1,-6.42 -17.32,-13.09 -25.72,-19.69 -3.59,-2.9 -7.23,-5.57 -10.83,-8.58 -11.36,-9.38 -21.94,-18.97 -31.89,-28.71 -4.9,-4.66 -9.73,-9.55 -14.53,-14.39l-8.47 -8.75z"/>
  <path class="fil12" d="M12921.98 13672.28c-197.35,0 -394.69,-43.94 -545.26,-131.82l-0.07 0c-16.08,-9.04 -31.92,-19.56 -47.66,-30.8 -9.1,-6.42 -17.32,-13.09 -25.72,-19.69 -3.59,-2.9 -7.23,-5.57 -10.83,-8.58 -11.36,-9.38 -21.94,-18.97 -31.89,-28.71 -4.9,-4.66 -9.73,-9.55 -14.53,-14.39l-8.47 -8.75c-234.38,-241.83 -406.82,-958.81 -406.93,-1522.17 -0.03,-132.53 9.49,-256.54 29.99,-363.89 4.73,154.87 108.3,308.93 310.76,427.11 207.26,121 478.93,181.54 750.61,181.54 271.67,0 543.34,-60.54 750.6,-181.54 202.25,-118.07 305.82,-271.92 310.76,-426.65 20.43,107.18 29.92,230.97 29.92,363.22 -0.04,563.18 -172.33,1280.03 -406.58,1522.02 -3.14,3.53 -6.7,6.92 -10.02,10.42 -4.19,4.16 -8.36,8.39 -12.59,12.44 -10.34,10.13 -21.31,20.04 -33.13,29.74l-8.71 6.99c-9,7.1 -17.85,14.22 -27.66,21.1 -15.59,11.18 -31.36,21.62 -47.31,30.59 -150.56,87.88 -347.94,131.82 -545.28,131.82z"/>
  <path class="fil4" d="M13672.62 11094.08c414.55,242.04 414.55,634.47 -0.04,876.51 -414.55,242.04 -1086.66,242.04 -1501.21,0 -414.58,-242.04 -414.55,-634.47 0,-876.51 414.59,-242.04 1086.66,-242.04 1501.25,0z"/>
  <path class="fil12" d="M12921.98 12152.13c-271.68,0 -543.35,-60.54 -750.61,-181.54 -206.8,-120.75 -310.44,-278.9 -310.94,-437.12 63.78,82.83 246.56,290.93 511,348.19 28.33,6.14 56.06,11.07 83.05,14.95 138.11,60.58 302.82,90.88 467.5,90.88l0 0c199.53,0 399.02,-44.45 551.25,-133.31l0 0c0.35,-0.22 0.63,-0.39 0.98,-0.6 0,0 0.04,0 0.04,-0.04 55.77,-32.67 101.28,-69.04 136.52,-107.77 119.1,-41.53 219.96,-118.89 301.7,-213.43 24.06,-27.8 44.56,-54.97 61.91,-81.53 6.11,27.06 9.18,54.26 9.14,81.53 0,158.61 -103.65,317.21 -310.94,438.25 -207.26,121 -478.93,181.54 -750.6,181.54zm-1058.9 -663.75c6.49,-53.45 24.8,-106.54 54.89,-157.76 68.72,-7.8 135.71,-10.69 196.92,-10.69 41.17,0 79.73,1.3 114.48,3.24 -17.04,19.23 -31.58,38.99 -43.61,59.17 -134.16,35.84 -266.8,84.7 -322.68,106.04z"/>
  <path class="fil4" d="M13473.23 11210.5c304.44,177.73 304.44,465.91 0,643.68 -304.45,177.72 -798.06,177.72 -1102.5,0 -304.45,-177.77 -304.45,-465.92 0.03,-643.68 304.41,-177.77 798.02,-177.77 1102.47,0z"/>
  <path class="fil13" d="M12921.98 11987.49c-164.68,0 -329.39,-30.3 -467.5,-90.88l0.03 0.04c138.08,60.54 302.79,90.84 467.47,90.84l0 0zm551.25 -133.31c0.31,-0.22 0.67,-0.39 0.98,-0.6 -0.35,0.21 -0.63,0.38 -0.98,0.6zm1.02 -0.64c55.53,-32.53 100.51,-68.79 135.43,-107.39 0.35,-0.14 0.71,-0.24 1.09,-0.38 -35.24,38.73 -80.75,75.1 -136.52,107.77zm-1288.49 -471.2c12.03,-20.18 26.57,-39.94 43.61,-59.17 105.48,5.93 175.54,17.85 175.54,17.85 -63.92,4.27 -141.78,20.64 -219.15,41.32z"/>
  <path class="fil0" d="M12370.76 11515.97c304.41,-177.73 798.02,-177.73 1102.47,0 84.59,49.39 144.78,107.42 182.35,169.08 -37.57,61.7 -97.76,119.74 -182.35,169.13 -304.45,177.72 -798.06,177.72 -1102.47,0 -84.56,-49.39 -144.78,-107.43 -182.39,-169.13 37.61,-61.66 97.83,-119.69 182.39,-169.08z"/>
  <path class="fil4" d="M12773.14 10740.17c-20.32,-41.34 -37.43,-84.27 -46.32,-132.57 -20.36,-110.67 7.23,-237.56 96.8,-305.68 35.67,-27.13 82.02,-47.24 97.19,-89.36 8.33,-23.21 5.19,-48.86 0.88,-73.13 -16.61,-94.51 -48.54,-191.81 -22.26,-284.06 24.35,-85.37 96.03,-150.81 176.25,-188.84 80.19,-38.06 169.16,-52.67 256.75,-67.1 46.68,-7.69 94.48,-15.84 135.75,-38.95 50.77,-28.39 66.54,-78.56 98.18,-122.59 34.82,-48.5 80.12,-93.41 124.53,-133.06 92.5,-82.69 208.39,-150.71 336.48,-145.07 267.23,11.82 259.68,241.8 182.53,416.14 -77.16,174.34 -97.44,231.07 69.53,412.65 166.93,181.61 167.29,405.48 -31.89,530.86 -199.14,125.41 -328.83,141.88 -249.98,383.22 70.41,215.44 114.05,399.41 -85.09,629.71 -128.69,148.8 -304.69,255.05 -524.83,246.02 -62.4,-2.57 -199.53,-31.25 -257.45,-60.04 -60.61,-30.13 -19.76,-77.26 -40.22,-137.05 -43.99,-128.45 -87.98,-256.93 -131.98,-385.38 -34.04,-99.41 -59.97,-209.72 -104.95,-303.92 -25.22,-52.88 -54.96,-101.14 -79.9,-151.8z"/>
  <path class="fil14" d="M13413.68 11778.89c-8.61,0 -17.29,-0.17 -26.04,-0.53 -57.82,-2.4 -179.74,-27.2 -243.41,-53.69 159.28,-148.38 241.16,-347.91 242.64,-594.64 0,-1.41 0,-2.86 0,-4.27 0,-165.21 -57.08,-308.96 -106.01,-401.85 207.15,-724.29 587.13,-1135.91 592.42,-1141.52 7.48,-7.94 7.16,-20.53 -0.74,-28.11 -3.78,-3.67 -8.68,-5.51 -13.59,-5.51 -5.18,0 -10.33,2.05 -14.21,6.14 -5.26,5.61 -378.53,409.47 -590.84,1121.13 -24.2,-40.25 -41.94,-62.94 -41.94,-62.94 -50.52,262.72 -271.39,405.34 -271.39,405.34 98.03,-126.64 167.96,-353.34 188.77,-501.93l0 0c-25.72,-57.29 -70.31,-120.93 -159.49,-199.67 -23.92,-21.13 -53.48,-40.99 -83.89,-58.77 15.31,-12.53 28.15,-26.85 34.85,-45.51 3.81,-10.62 5.22,-21.73 5.22,-32.99 0,-13.37 -1.97,-26.95 -4.34,-40.14 -12.06,-68.65 -32.24,-138.78 -32.24,-207.4 -0.04,-25.82 2.82,-51.43 9.98,-76.66 24.35,-85.37 96.03,-150.81 176.25,-188.84 80.19,-38.06 169.16,-52.67 256.75,-67.1 46.68,-7.69 94.48,-15.84 135.75,-38.95 50.77,-28.39 66.54,-78.56 98.18,-122.59 34.82,-48.5 80.12,-93.41 124.53,-133.06 88.87,-79.48 199.39,-145.38 321.52,-145.38 4.98,0 9.95,0.1 14.96,0.31 170.67,7.55 229.27,104.07 229.24,218.27 -0.04,64.59 -18.84,134.87 -46.71,197.87 -34.57,78.14 -57.75,132.65 -57.72,185.39 0,64.87 35.1,127.07 127.25,227.26 79.87,86.88 121.6,183.48 121.6,274.32 -0.03,98.98 -49.63,191.17 -153.49,256.54 -158.68,99.94 -273.26,130.7 -273.37,261.19 -0.03,33.27 7.37,72.99 23.39,122.03 32.39,99.09 59.13,191.56 59.16,284.9 0.04,109.57 -36.72,220.45 -144.25,344.81 -123.58,142.91 -290.76,246.55 -498.79,246.55z"/>
  <path class="fil11" d="M13136.47 11717.23c7.79,-2.68 13.29,-10.16 13.22,-18.95 -11.28,-1319.99 716.25,-2108.09 723.59,-2115.89 7.48,-7.94 7.16,-20.53 -0.74,-28.11 -7.8,-7.59 -20.29,-7.34 -27.8,0.63 -7.45,7.94 -745.81,806.84 -734.35,2143.66 0.08,11 8.97,19.82 19.8,19.75l6.28 -1.09z"/>
  <path class="fil11" d="M13348.24 10489.42l3.98 -1.91c236.72,-148.97 659.2,-260.13 663.4,-261.3 10.62,-2.79 16.83,-13.58 14.08,-24.2 -2.72,-10.65 -13.44,-17.07 -23.96,-14.32 -17.56,4.55 -432.54,113.88 -674.33,266.03 -9.24,5.82 -12.03,18.03 -6.28,27.37 4.94,8.05 14.64,11.29 23.11,8.33z"/>
  <path class="fil11" d="M13421.33 10308.41l1.06 -0.39c10.06,-4.13 14.89,-15.73 10.73,-25.89 -82.84,-204.68 -212.87,-360.75 -218.37,-367.32 -7.02,-8.36 -19.51,-9.48 -27.7,-2.32 -8.32,7.09 -9.31,19.65 -2.25,28.04 1.3,1.59 131.51,158.01 211.94,356.55 3.96,9.85 14.82,14.75 24.59,11.33z"/>
  <path class="fil4" d="M12950.97 11860.21c0,0 -247.05,93.48 -579.54,21.45 -332.53,-72.01 -535.94,-382.52 -535.94,-382.52 0,0 359.66,-144.11 569.42,-158.12 0,0 -325.47,-55.45 -629.96,13.52 0,0 -192.47,-71.69 -155.99,-396.74 0,0 181.15,-133.52 598.17,-81.21 0,0 -208.95,-149.15 -575.31,-193.18 -28.83,0.28 10.19,-423.16 45.12,-611.89 34.96,-188.74 104.21,-159.6 254.03,-143.3 149.83,16.26 592.88,117.12 649.11,225.81 56.24,108.69 1.59,385.77 1.59,385.77 0,0 121.78,-151.56 122.27,-362.66 0,0 166.76,60.96 255.91,139.7 89.18,78.74 133.77,142.38 159.49,199.67 -20.81,148.59 -90.74,375.29 -188.77,501.93 0,0 220.87,-142.62 271.39,-405.34 0,0 176.64,225.6 174.91,516.93 -2.01,332.21 -149.69,578.84 -435.9,730.18z"/>
  <path class="fil15" d="M12625.57 11908.93c-75.81,0 -161.68,-7.24 -254.14,-27.27 -332.53,-72.01 -535.94,-382.52 -535.94,-382.52 0,0 359.66,-144.11 569.42,-158.12l0 0c0,0 -70.06,-11.92 -175.54,-17.85 -34.75,-1.94 -73.31,-3.24 -114.48,-3.24 -61.21,0 -128.2,2.89 -196.92,10.69 -47.31,5.4 -95.39,13.12 -143.02,23.92 0,0 -160.44,-59.76 -160.62,-317.61 0,-24.55 1.45,-50.87 4.63,-79.13 0,0 126.71,-93.34 411.97,-93.34 55.92,0 117.83,3.56 186.2,12.13l0 0c0,0 -208.95,-149.15 -575.31,-193.18l-0.04 0c-7.02,0 -10.02,-25.22 -9.98,-66.11 0,-126.54 28.75,-403.15 55.14,-545.78 23.53,-127 62.58,-155.36 131.23,-155.36 33.41,0 73.8,6.7 122.8,12.06 149.83,16.26 592.88,117.12 649.11,225.81 19.09,36.94 25.4,93.31 25.4,151.66 0,113.35 -23.81,234.11 -23.81,234.11l0 0c0,0 121.78,-151.56 122.27,-362.66 0,0 166.76,60.96 255.91,139.7 89.18,78.74 133.77,142.38 159.49,199.67 -20.81,148.59 -90.74,375.29 -188.77,501.93l0 0c0,0 220.87,-142.62 271.39,-405.34 0,0 174.91,223.42 174.91,512.66 0,1.41 0,2.86 0,4.27 -1.48,246.73 -83.36,446.26 -242.64,594.64 -55.18,51.37 -119.63,96.59 -193.26,135.54 0,0 -128.72,48.72 -325.4,48.72z"/>
  <path class="fil11" d="M12994.93 11830.68c-6.53,-2.57 -11.39,-8.71 -11.99,-16.3 -50.31,-629.92 -755.12,-1613.92 -1066.66,-1811.48 -8.79,-5.61 -11.5,-17.42 -5.96,-26.38 5.57,-8.93 17.32,-11.5 26.1,-6.04 316.62,200.87 1033.11,1200.86 1084.12,1840.83 0.85,10.52 -6.88,19.72 -17.28,20.57l-8.33 -1.2z"/>
  <path class="fil16" d="M6621.08 11436.84c-1.27,-7.06 -113.24,-416.03 -113.24,-416.03 0,0 36.87,37.64 273.37,-24.77 120.3,-31.71 257.17,-107.95 257.17,-107.95l67.53 299.02c62.97,115.07 271.78,62.09 500.52,36.05 38.45,-4.37 77.96,-10.83 117.51,-17.64l2.36 -0.28c123.54,-6.77 247.51,67.42 119.1,172.76 -128.41,105.34 -340.22,145.2 -535.48,180.48 -234.85,42.44 -646.75,111.4 -688.84,-121.64z"/>
  <path class="fil8" d="M8263.19 11400.64c0,0 24.8,47.35 17.11,125.66 -4.48,45.55 -117.12,200.13 -316.12,294.71 -199,94.58 -445.24,100.97 -560.46,134.13 -115.25,33.16 -220.8,99.34 -356.62,132.4 -139.91,34.08 -270.05,50.62 -406.19,-39.02 -25.05,-38.66 -52.85,-127.95 -44.8,-136.67 21.66,-23.38 1667.08,-511.21 1667.08,-511.21z"/>
  <path class="fil4" d="M7141.78 11226.94c87.6,60.57 268.82,18.52 464.65,-3.78 184.6,-21.02 392.53,-85.9 518.02,-42.4 125.51,43.53 230.47,191.24 60.85,380.68 -49.07,54.79 -152.93,151.2 -235.9,180.9 -210.86,75.5 -400.05,81.6 -535.7,115.05 -176.46,43.56 -272.9,121.7 -436.17,140.65 -211.24,24.52 -344.88,-29.78 -381.42,-86.19 -36.48,-56.44 -70.45,-511.17 20.1,-501.75 0,0 38.14,147.14 383.19,4.23 150.67,-62.4 148.27,-154.27 142.38,-187.39z"/>
  <path class="fil12" d="M6876.92 12004.11c-153.18,0 -250.47,-45.41 -280.81,-92.26 -19.23,-29.73 -37.75,-169.96 -37.72,-294.71 0,-109.57 14.33,-207.18 55.11,-207.18 0.88,0 1.8,0.03 2.71,0.14 0,0 17.29,66.67 133.81,66.67 56.59,0 136.6,-15.73 249.38,-62.44 124.18,-51.43 144.39,-122.87 144.36,-164.96 0,-8.96 -0.95,-16.61 -1.98,-22.43 33.48,23.14 80.65,31.29 137.06,31.29 62.09,0 135.39,-9.88 214.06,-20.53l188.99 490.08c2.22,0.14 4.44,0.28 6.66,0.38 9.14,24.17 19.02,50.03 29.07,75.99 -116.63,22.44 -220.41,32.67 -303.92,53.24 -176.46,43.56 -272.9,121.7 -436.17,140.65 -35.77,4.16 -69.39,6.07 -100.61,6.07z"/>
  <path class="fil17" d="M7727.39 11470.99c0,0 -19.82,-192.05 -161.74,-242.92 0,0 -45.72,-20.99 -78.22,10.3 0,0 131.73,19.12 174.88,244.37 0,0 6.81,14.88 35.49,9.7 9.66,-1.73 30.93,-5.58 29.59,-21.45z"/>
  <path class="fil17" d="M7366.4 11253.32c0,0 -0.18,-6.38 33.33,-12.63 24.13,-4.48 38.92,4.27 38.92,4.27 0,0 105.86,45.83 125.69,246.6 0,0 -0.88,24.2 -32.63,30.86 -31.75,6.67 -37.85,-19.65 -37.85,-19.65 0,0 -21.81,-211.2 -127.46,-249.45z"/>
  <path class="fil17" d="M7252.8 11257.45c0,0 5.96,-12.1 30.87,-11.96 31.4,0.18 38.66,12.31 38.66,12.31 0,0 75.36,77.26 76.2,245.01 0,0 3.14,28.47 -36.37,31.33 -39.54,2.89 -33.9,-29.21 -33.9,-29.21 0,0 -13.62,-213.75 -75.46,-247.48z"/>
  <path class="fil2" d="M6474.96 8655.93c172.9,519.64 631.51,2309.18 631.51,2309.18 0,0 -298.41,268.14 -622.26,145.97l-771.42 -2228.35 762.17 -226.8z"/>
  <path class="fil16" d="M7808.07 12014.55c-35.31,-52.46 -167.92,-416.42 -167.92,-416.42 0,0 138.47,79.13 376.45,22.54 121.04,-28.78 234.14,-160.19 234.14,-160.19l101.64 349.88c60.11,116.59 254.31,78 483.62,57.61 38.56,-3.46 78.21,-8.93 117.9,-14.75l2.4 -0.24c123.64,-3.71 245.78,73.48 114.79,175.64 -130.95,102.13 -343.68,136.81 -539.75,167.29 -235.8,36.65 -590.97,15.03 -723.27,-181.36z"/>
  <path class="fil8" d="M9586.85 12003.58c0,0 25.37,51.5 15.06,135.36 -6.03,48.79 -131.05,211.77 -347.16,308.08 -216.12,96.31 -480.63,96.66 -605.19,129.22 -124.61,32.56 -239.68,100.82 -386.33,132.75 -151.17,32.88 -291.29,47.2 -435.08,-52.6 -25.86,-42.19 -53.38,-138.82 -44.49,-147.92 23.89,-24.52 1803.19,-504.89 1803.19,-504.89z"/>
  <path class="fil4" d="M8389.77 11784.18c14.18,9.64 28.47,19.27 43.36,26.89 15.66,8.04 30.79,7.65 48.15,9.73 38.42,4.66 76.91,4.84 115.53,2.93 96.91,-4.8 193.04,-19.4 289.64,-28.01 198.75,-17.67 423.68,-81.88 557.24,-31.86 133.6,50.03 255.59,210.82 68.48,409.69 -54.08,57.53 -165.49,154.55 -250.72,190.21 -221.9,92.78 -452.12,75.43 -598.6,107.81 -190.64,42.09 -296.22,123.44 -471.98,139.49 -227.47,20.74 -369.46,-41.06 -407.21,-102.59 -21.02,-34.36 2.37,-212.65 -26.14,-351.15 -24.55,-119.21 -18.1,-200.45 24.77,-194.91 6.73,15.34 22.64,29.17 33.23,42.12 13.76,16.83 31.11,29.99 50.45,39.86 26.77,13.73 56.16,21.35 85.33,28.72 51.9,13.12 104.99,25.86 158.4,21.77 15.24,-1.2 31.15,-4.06 43.04,-13.69 15.66,-12.74 20.78,-34.04 25.01,-53.8 3.7,-17.53 7.48,-35.07 11.18,-52.6 2.05,-9.52 4.17,-19.33 9.6,-27.45 6.45,-9.63 16.86,-15.76 27.02,-21.44 32.03,-17.89 66.43,-35.42 86.61,-66.04 15.8,-23.99 20.95,-53.24 25.43,-81.64 0.74,-4.94 1.8,-10.33 5.68,-13.4 6.53,-5.19 15.91,-0.78 22.9,3.67 7.9,5.01 15.73,10.37 23.6,15.69z"/>
  <path class="fil12" d="M8103.56 12615.15c-176.56,0 -287.27,-53.44 -319.9,-106.68 -21.02,-34.36 2.37,-212.65 -26.14,-351.15 -9.42,-45.72 -14.29,-85.9 -14.25,-117.69 0,-48.44 11.32,-77.5 34.99,-77.5 1.31,0 2.65,0.1 4.03,0.28 6.73,15.34 22.64,29.17 33.23,42.12 13.76,16.83 31.11,29.99 50.45,39.86 26.77,13.73 56.16,21.35 85.33,28.72 45.16,11.39 91.23,22.54 137.59,22.54 6.95,0 13.86,-0.25 20.81,-0.77 15.24,-1.2 31.15,-4.06 43.04,-13.69 15.66,-12.74 20.78,-34.04 25.01,-53.8 3.7,-17.53 7.48,-35.07 11.18,-52.6 2.05,-9.52 4.17,-19.33 9.6,-27.45 6.45,-9.63 16.86,-15.76 27.02,-21.44 32.03,-17.89 66.43,-35.42 86.61,-66.04 15.8,-23.99 20.95,-53.24 25.43,-81.64 0.74,-4.94 1.8,-10.33 5.68,-13.4 2.08,-1.7 4.48,-2.37 7.02,-2.37 5.3,0 11.15,3 15.88,6.04 7.9,5.01 15.73,10.37 23.6,15.69 14.18,9.64 28.47,19.27 43.36,26.89 15.66,8.04 30.79,7.65 48.15,9.73 23.99,2.9 47.98,4.06 72.04,4.06 14.46,0 28.96,-0.42 43.49,-1.13 96.91,-4.8 193.04,-19.4 289.64,-28.01 144.99,-12.91 303.95,-50.55 431.16,-50.55 47.17,0 89.96,5.18 126.08,18.69 84.42,31.61 164.19,107.46 164.29,209.17 0.04,59.26 -26.95,127.31 -95.81,200.52 -54.08,57.53 -165.49,154.55 -250.72,190.21 -221.9,92.78 -452.12,75.43 -598.6,107.81 -190.64,42.09 -296.22,123.44 -471.98,139.49 -30.65,2.79 -59.79,4.09 -87.31,4.09z"/>
  <path class="fil17" d="M9009.78 12065c0,0 -16.23,-206.73 -167.26,-265.05 0,0 -48.54,-23.77 -84.2,8.96 0,0 140.9,24.03 181.29,266.99 0,0 6.91,16.15 37.85,11.36 10.44,-1.63 33.34,-5.19 32.32,-22.26z"/>
  <path class="fil17" d="M8627.97 11821.79c0,0 -0.04,-6.84 36.12,-12.66 26,-4.2 41.63,5.57 41.63,5.57 0,0 112.5,52 128.44,268.08 0,0 -1.55,25.96 -35.84,32.27 -34.22,6.32 -40.07,-22.11 -40.07,-22.11 0,0 -17.85,-227.33 -130.28,-271.15z"/>
  <path class="fil17" d="M8505.9 11823.24c0,0 6.71,-12.81 33.48,-12.03 33.69,1.02 41.17,14.25 41.17,14.25 0,0 78.85,84.91 75.36,265.04 0,0 2.61,30.62 -39.9,32.67 -42.55,2.04 -35.6,-32.25 -35.6,-32.25 0,0 -9,-229.83 -74.51,-267.68z"/>
  <path class="fil3" d="M7691.8 9269.51c136.14,418.75 483.76,1610.93 642.62,2224.06 0,0 -285.43,256.61 -652.53,234.21l-885.19 -2295.28 352.53 -218.16 542.57 55.17z"/>
  <path class="fil3" d="M4777.4 14999.92c31.71,0 57.39,-25.67 57.39,-57.39l0 -3689.7c0,-31.75 -25.68,-57.4 -57.39,-57.4 -31.72,0 -57.4,25.65 -57.4,57.4l0 3689.7c0,31.72 25.68,57.39 57.4,57.39z"/>
  <path class="fil3" d="M2494.54 13656.9c22.85,0 44.44,-13.72 53.35,-36.34l1131.45 -2863.7c11.64,-29.49 -2.82,-62.83 -32.28,-74.44 -29.39,-11.78 -62.79,2.76 -74.44,32.28l-1131.45 2863.75c-11.64,29.49 2.81,62.83 32.3,74.43 6.89,2.76 14.06,4.02 21.07,4.02z"/>
  <path class="fil3" d="M2630.44 13312.94c15.26,0 30.44,-6.06 41.7,-17.98l2105.29 -2227.83 2101.53 2218.41c21.77,23.1 58.11,24.06 81.11,2.19 23,-21.8 23.95,-58.12 2.18,-81.11l-2143.19 -2262.47c-10.83,-11.43 -25.93,-17.92 -41.66,-17.92l-0.04 0c-15.77,0 -30.87,6.49 -41.66,17.99l-2146.94 2271.93c-21.8,23.03 -20.76,59.37 2.28,81.13 11.11,10.44 25.24,15.66 39.4,15.66z"/>
  <path class="fil3" d="M7060.22 13656.9c6.99,0 14.15,-1.26 21.06,-4.02 29.49,-11.6 43.96,-44.94 32.28,-74.43l-1131.43 -2863.75c-11.64,-29.52 -44.98,-44.06 -74.4,-32.28 -29.49,11.61 -43.99,44.95 -32.31,74.44l1131.43 2863.7c8.92,22.62 30.48,36.34 53.37,36.34z"/>
  <path class="fil4" d="M7087.91 9987.45c41.17,-231.46 -147.42,-412.04 -502.14,-651.47 -354.72,-239.4 -808.28,-476.71 -1027.82,-577.46 -296.76,-136.25 -600.39,-123.69 -980.33,71.54 -527.83,271.21 -2116.34,1234.51 -2116.34,1234.51 0,0 2374.89,1340.77 2831.84,1280.65 456.92,-60.15 1599,-802.81 1689.45,-1064.22 90.49,-261.37 105.34,-293.55 105.34,-293.55z"/>
  <path class="fil6" d="M5076.69 11317.39l0 0 -12.98 -254.21c-41.56,-45.33 -80.54,-95.18 -117.47,-149.26 91.96,-6.07 180.48,-21.84 263.63,-49.36 485.84,-160.83 1343.97,-741.08 1844.49,-1096.64 25.76,51.19 39.13,103.19 39.13,157.65 0,20.25 -1.84,40.86 -5.58,61.88 0,0 -0.81,1.73 -3.17,7.62 -22.72,52.39 -177.91,367.53 -759.99,745.24 -390.21,253.26 -681.07,458.47 -936.2,458.47 -113.49,0 -219.92,-40.6 -324.84,-135.6l0 0 12.98 254.21zm-2417.14 -1142.65c-124.3,-68.4 -198.27,-110.17 -198.27,-110.17 0,0 30.59,-18.56 84.66,-51.22 31.66,56.19 69.68,109.89 113.61,161.39z"/>
  <path class="fil4" d="M5063.71 11063.18c340.92,308.64 697.3,43 1261.04,-322.87 638.07,-414.02 763.16,-752.86 763.16,-752.86 0,0 0,253.86 -47.62,372.85 -47.59,118.99 -150.71,253.86 -610.87,571.19 -460.09,317.35 -793.33,476.03 -1102.71,534.91l-244.13 -33.72 -18.87 -369.5z"/>
  <path class="fil18" d="M6978.31 10470.86l0 0c30.02,-40.81 48.29,-76.34 61.98,-110.56 20.35,-50.8 32,-126.19 38.66,-195.93l0 0c-6.66,69.74 -18.31,145.13 -38.66,195.93 -13.69,34.22 -31.96,69.75 -61.98,110.56z"/>
  <path class="fil19" d="M6423.46 10935.61l0 0c2.01,-1.37 3.98,-2.75 5.96,-4.12 327.84,-226.06 474.45,-359.52 548.89,-460.63l0 0c-74.44,101.11 -221.05,234.57 -548.89,460.63 -1.98,1.37 -3.95,2.75 -5.96,4.12z"/>
  <path class="fil5" d="M5326.71 11466.4l-14.89 -2.04 -181.89 -25.12 -47.35 -6.56 -18.87 -369.5c104.92,95 211.35,135.6 324.84,135.6 255.13,0.04 545.99,-205.21 936.2,-458.47 638.07,-414.02 763.16,-752.86 763.16,-752.86 0,0 0,83.36 -8.96,176.92 -6.66,69.74 -18.31,145.13 -38.66,195.93 -13.69,34.22 -31.96,69.75 -61.98,110.56 -74.44,101.11 -221.05,234.57 -548.89,460.63 -1.98,1.37 -3.95,2.75 -5.96,4.12 -99.42,68.44 -192.9,129.44 -281.52,183.62 -33.97,20.78 -67.27,40.57 -99.91,59.38 -7.69,4.44 -15.31,8.82 -22.96,13.15 -262.93,149.34 -483.1,234.81 -692.36,274.64z"/>
  <path class="fil7" d="M2583.52 13207.5l-174.79 402.95c-1.09,3.49 -1.74,6.94 -1.89,10.43l-0.35 7.46c1.01,8.46 11.1,19.68 22.21,26.98 25.4,16.37 67.8,18.38 94.63,4.44 9.81,-5.14 16.19,-11.61 19.32,-18.48l0.27 -0.68 1.42 -5.52 162.24 -377.88 -123.06 -49.7z"/>
  <path class="fil7" d="M6982.22 13224.47l149.58 394.76c0.92,3.39 1.34,6.74 1.34,10.13l0 7.15c-1.34,8.09 -11.54,18.38 -22.54,24.87 -25.12,14.58 -65.9,14.58 -91.02,0 -9.21,-5.36 -15.03,-11.88 -17.71,-18.62l-0.25 -0.64 -1.12 -5.39 -138.68 -370.07 120.4 -42.19z"/>
  <path class="fil7" d="M4711.21 14656.85l0 326.54c0,9.77 6.46,19.57 19.37,27.02 25.86,14.93 67.74,14.93 93.59,0 12.92,-7.45 19.37,-17.25 19.37,-27.02l0 -326.54c-44.1,-22.12 -88.19,-22.12 -132.33,0z"/>
  <path class="fil2" d="M3412.45 8603.89c135.27,157.55 1366.11,-196.53 1692.18,-240.94 525.92,-71.65 954.09,-124.01 1132.52,-67.88 178.44,56.06 254.32,147.04 309.04,360.86 64.52,252.13 97.96,380.61 97.96,380.61 0,0 -873.86,335.42 -1562.91,416.17 -689.04,80.75 -1668.79,-848.82 -1668.79,-848.82z"/>
  <path class="fil3" d="M3182.83 8834.89c-136.46,519.82 -259.03,1124.62 56.76,1455.7 212.66,222.99 1281.02,802.15 1970.28,573.97 678.95,-224.79 2084.88,-1268.55 2225.99,-1373.64 141.39,-105.34 269.41,-176.71 255.94,-221.41 -189.62,-629.46 -466.69,-678.63 -980.58,-565.6 -628.37,138.25 -2007.98,701.25 -2007.98,701.25l-1520.41 -570.27z"/>
  <polygon class="fil16" points="6304.57,5492.29 5830.54,6028.3 5064.87,5665.01 5600.14,4924.42 "/>
  <path class="fil20" d="M6892.65 4474.17c0,0 194.06,280.28 173.36,308.72 -20.75,28.47 -158.15,56.83 -158.15,56.83l-15.21 -365.55z"/>
  <path class="fil8" d="M7101.95 4427.22l-21.3 0c0,52.38 -21.17,99.62 -55.5,133.98 -34.36,34.33 -81.59,55.49 -134.02,55.49 -52.38,0 -99.62,-21.16 -133.98,-55.49 -34.33,-34.36 -55.49,-81.6 -55.49,-133.98 0,-52.39 21.16,-99.63 55.49,-133.99 34.36,-34.32 81.6,-55.49 133.98,-55.53 52.43,0.04 99.66,21.21 134.02,55.53 34.33,34.36 55.5,81.6 55.5,133.99l42.58 0c0,-128.17 -103.9,-232.06 -232.1,-232.1 -128.16,0.04 -232.05,103.93 -232.05,232.1 0,128.19 103.89,232.05 232.05,232.09 128.2,-0.04 232.1,-103.9 232.1,-232.09l-21.28 0z"/>
  <path class="fil16" d="M6353.89 3698.87c381.35,71.37 494.73,235.69 544.3,837.74 51.79,629.11 -7.97,828.61 -88.79,915.32 -54.58,58.49 -364.78,75.99 -522.4,36.37 -197.24,-49.56 -643.82,-196.39 -858.52,-508.49 -252.59,-367.25 -328.26,-871.01 -71.75,-1084.27 360.99,-300.14 841.97,-225.7 997.16,-196.67z"/>
  <path class="fil20" d="M6304.57 5492.29c164.11,37.07 413.67,14.67 487.79,-27.87 -7.06,1.9 -124.5,32.28 -276.05,-10.16 -156.28,-43.78 -252.87,-111.48 -252.87,-111.48l41.13 149.51z"/>
  <path class="fil8" d="M6968.85 3945.25l-1.13 0.74c-106.43,73.41 -236.25,104 -364.03,123.86 10.09,102.1 -22.08,203.1 -53.83,300.64 -22.02,67.52 -101.32,279.58 -187.65,163.16 -62.4,-84.1 -119.13,-160.66 -238.54,-140.02 -196.89,34.01 -217.77,286.39 -89.82,436.53 128.06,150.14 242.71,88.83 242.71,88.83 0,0 18.13,271.35 -124.95,463.16 0,0 -213.61,131.3 -513.4,32.53 -189.2,-62.34 -462.25,-300.89 -562.86,-487.08 -276.89,-512.38 -278.34,-1003.3 57.5,-1154.33 31.08,-245.6 221.3,-359.76 439.81,-415.25 302.93,-76.94 617.68,113.1 910.56,-12.35 61.66,-26.42 118.42,-63.85 181.5,-86.75 35.46,-12.88 77.44,-20.25 109.01,0.39 27.34,17.81 39.02,51.58 46.64,83.29 13.97,58.31 19.36,123.51 -11.54,174.91 44.24,-21.31 89.22,-42.87 137.66,-50.73 48.43,-7.87 101.7,-0.32 139.2,31.36 34.86,29.49 51.58,75.85 55.81,121.32 11.96,128.31 -66.74,252.31 -172.65,325.79z"/>
  <path class="fil8" d="M5128.87 3855.33l-230.15 -128.66c35.52,-63.57 115.85,-86.29 179.42,-50.73 63.57,35.52 86.25,115.82 50.73,179.39z"/>
  <polygon class="fil8" points="6365.53,4551.46 7102.87,4413.67 7096.24,4378.07 6358.9,4515.83 "/>
  <path class="fil16" d="M7904.1 5805.48c-19.9,-33.23 -63.96,-39.68 -100.51,-52.46 -67.76,-23.63 -120.65,-77.64 -185.91,-107.49 -72.67,-33.26 -157.09,-34.39 -234.84,-15.87 -26.82,6.38 -52.92,14.92 -78.5,25.08 -48.57,19.3 -95.07,44.38 -140.16,71.05 -186.83,110.6 -327.27,360.57 -510.96,475.26 -68.44,42.76 -132.4,81.56 -195.4,120.16l438.75 391.19c90.38,-73.55 176.63,-141.11 216.43,-164.81 108.02,-64.24 216.99,-65.73 338.35,-83.29 84.24,-12.21 166.01,-37.12 247.43,-61.95 28.68,-8.72 60.61,-20.22 72.89,-47.56 15.63,-34.6 -11.71,-76.37 -47.03,-90.27 -37.85,-14.93 -87.66,-11.08 -128.27,-17.61 -10.12,-1.62 -25.72,-0.77 -42.82,0.07 -36.27,1.8 -79.45,3.6 -92.19,-18.16 -9.8,-16.69 2.33,-37.36 14.47,-52.46 76.06,-94.9 172.33,-196.57 294.14,-225.07 37.75,-8.86 77.16,-17.96 107.14,-42.55 29.99,-24.59 46.89,-69.95 26.99,-103.26z"/>
  <path class="fil5" d="M5279.65 5367.86c-466.02,-254.24 -890.31,-90.98 -1043.2,236.05 -138.36,295.91 -429.19,1440.88 -429.19,1440.88 139.77,262.08 1472.39,-1676.93 1472.39,-1676.93z"/>
  <path class="fil5" d="M5209.87 5459.87l69.78 -92.01c-526.1,-249.94 -997.2,78.42 -1412.1,723.8 -447.16,695.6 -681.84,1694.39 -684.09,2748.49 0,0 89.27,473.67 687.83,710.63 634.96,251.39 1520.79,144.89 1796.83,-513.29 0,0 5.54,-657.43 205.5,-981.14 129.36,-209.45 431.02,-675.04 655.46,-1008.91 195.4,-290.66 347.24,-952.15 -60.96,-1194.16 -119.52,-70.87 -169.12,-91.54 -331.86,-169.33 -371.33,122.59 -974.34,-76.62 -926.39,-224.08z"/>
  <path class="fil21" d="M4536.03 9675.84c-31.4,0 -62.87,-0.84 -94.3,-2.47l0 0c31.43,1.63 62.9,2.47 94.3,2.47l0 0z"/>
  <path class="fil22" d="M5222.53 5519.63c-11.22,-16.16 -16.62,-32.28 -15.13,-47.95 0.84,-1.19 1.65,-2.36 2.5,-3.52 -3.49,16.75 1.13,34.08 12.63,51.47z"/>
  <path class="fil21" d="M5207.4 5471.68c0.38,-3.95 1.2,-7.9 2.47,-11.81l69.78 -92.01 0 0 0 0 -68.2 94.37c-0.63,1.94 -1.16,3.92 -1.55,5.93 -0.85,1.16 -1.66,2.33 -2.5,3.52z"/>
  <path class="fil21" d="M6441.52 7178.46l0.28 -0.42c2.15,-3.21 4.31,-6.46 6.46,-9.71 -2.26,3.39 -4.48,6.74 -6.74,10.13z"/>
  <path class="fil23" d="M6140.63 7637.21c94.44,-145.8 197.95,-303.78 294.43,-449.01l0 0c-60.36,90.87 -123.47,186.72 -185.42,281.51 -10.05,15.42 -20.14,30.83 -30.19,46.25 -26.71,40.99 -53.1,81.6 -78.78,121.25l-0.04 0z"/>
  <path class="fil24" d="M5887.9 8033.35l0 -0.04c60.65,-97.51 151.49,-239.82 252.73,-396.1l0.04 0c-38.03,58.7 -74.61,115.43 -108.69,168.59l-2.01 3.14 -4.87 7.66c-26.6,41.52 -51.47,80.61 -74.33,116.7l-4.69 7.37 -0.25 0.46c-21.27,33.62 -40.85,64.77 -57.93,92.22z"/>
  <path class="fil25" d="M5775.3 8283.15c26,-83.68 58.24,-161.93 98.32,-226.8 4.55,-7.34 9.31,-15.03 14.28,-23.04l0 0.04c-5,8 -9.77,15.66 -14.28,23 -40.08,64.87 -72.32,143.12 -98.32,226.8l0 0z"/>
  <path class="fil26" d="M6435.06 7188.2l0 0c2.16,-3.25 4.31,-6.53 6.46,-9.74l-0.39 0.6c-2.01,3.03 -4.06,6.1 -6.07,9.14z"/>
  <path class="fil27" d="M4536.03 9675.84l0 0c478.82,0 945.19,-192.72 1132.09,-638.35 0,0 0,-1.2 0.04,-3.56l0 0c-0.04,2.36 -0.04,3.56 -0.04,3.56 -186.9,445.63 -653.23,638.35 -1132.09,638.35z"/>
  <path class="fil26" d="M6448.26 7168.33c27.65,-41.59 54.68,-81.98 80.68,-120.65l0 0c-8.36,12.42 -17.01,25.33 -25.54,38.1 -18.07,26.96 -36.41,54.4 -55.14,82.55z"/>
  <path class="fil28" d="M6528.94 7047.68l0 0c0.03,-0.07 0.1,-0.17 0.14,-0.24 0.03,-0.07 0.07,-0.11 0.1,-0.14l-0.07 0.14c-0.07,0.07 -0.14,0.17 -0.17,0.24z"/>
  <path class="fil16" d="M9139.88 7266.19c-32.84,40.68 -70.52,77.72 -109.32,112.89 -160.94,145.77 -349.01,215.66 -567.55,357.65 -176.71,114.76 -449.23,281.9 -678.85,425.03 -258.1,160.9 -569.35,291.67 -739.14,341.56 -213.36,62.72 -332.71,65.33 -458.86,-276.41 -61.88,-167.57 -110.88,-339.54 -164.29,-510.01 -79.52,-253.68 -157.59,-507.82 -234.35,-762.35 0,0 -283.7,-699.52 351.01,-1050.89 276.19,158.05 381.43,222.07 468.07,552.87 103.54,396 271.5,1177.72 271.5,1177.72 224.5,-77.51 443.44,-173.53 656.02,-279.23 80.58,-40.04 179.57,-67.8 237.03,-139.48 39.06,-48.65 70.74,-102.59 100.93,-157.06 27.03,-48.75 46.57,-101.78 76.38,-148.38 55.24,-86.47 135.08,-159.17 208.6,-229.73 14.39,-13.86 30.51,-28.47 50.41,-29.88 21.02,-1.52 40.71,12.95 51.22,31.22 23.39,40.71 1.62,80.68 -10.3,122.35 -13.65,47.51 -27.3,95 -40.92,142.52 162.1,-95.99 299.54,-222.08 404.92,-379.56 9.56,-14.35 19.01,-29.06 31.92,-40.49 12.88,-11.43 29.99,-19.37 47.1,-17.26 42.51,5.3 84.6,73.91 86.68,113.07 2.18,39.9 -6.71,80.75 3.17,119.45 9.46,36.94 34.47,67.2 46.04,103.22 11.29,35.25 20.32,77.23 24.16,114.23 8.89,85.76 -21.37,166.62 -64.41,239.4 -13.97,23.7 -29.92,46.14 -47.17,67.55z"/>
  <path class="fil5" d="M6500.61 5874.38c241.93,97.79 416.03,208.25 526.27,577.18 110.88,371.02 229.87,961 229.87,961 0,0 2.26,123.83 -291.32,296.9 -293.58,173.14 -568.26,76.59 -568.26,76.59l-221.72 -712.51c0,0 -393.06,-952.96 325.16,-1199.16z"/>
  <path class="fil4" d="M5082.58 11432.68c-194.13,-9.74 -346.07,-152.3 -807.68,-344.63 -852.31,-355.11 -1491.53,-639.24 -1735.06,-1085.71 -243.52,-446.44 -416.02,-1735.07 -355.12,-2293.13 8.06,-74.05 22.46,-134.9 41.74,-184.99l-59.93 -8.79 155.26 -132.15 0.07 0.39c159.23,-130.07 418.41,-14.11 613.69,92.18 558.01,303.67 994.4,598.66 1339.35,1664.05 259.5,801.37 430.63,1532.4 788.81,1923.28l18.87 369.5z"/>
  <path class="fil6 str1" d="M5082.58 11432.68c-81.35,-4.1 -155.32,-31.51 -247.79,-76.13 -35.1,-16.97 -72.92,-36.41 -114.79,-58 -33.41,-17.22 -69.39,-35.81 -108.73,-55.6 -33.41,-16.79 -69.21,-34.46 -107.88,-52.91 -66.88,-31.9 -142.31,-66.08 -228.49,-101.99 -222.5,-92.71 -430.46,-180.55 -620.64,-267.72 -35.35,-16.23 -70.1,-32.39 -104.18,-48.58 -485.31,-230.26 -842.11,-461.15 -1010.24,-769.41 -210.1,-385.16 -367.34,-1397.28 -367.42,-2026.22 -0.02,-100.01 3.94,-190.32 12.3,-266.91 8.06,-74.05 22.46,-134.9 41.74,-184.99l0 0 -59.93 -8.79 155.26 -132.15 0.07 0.39c50.37,-41.13 110.77,-57.68 175.93,-57.68 140.89,0 304.25,77.19 437.76,149.86 558.01,303.67 994.4,598.66 1339.35,1664.05 259.5,801.37 430.63,1532.4 788.81,1923.28l18.87 369.5z"/>
  <path class="fil7" d="M2773.84 7613.08c558.01,303.67 994.36,598.63 1339.35,1664.02 345.01,1065.42 533.68,2006.67 1213.52,2189.3 0,0 -307.41,122.17 -1249.37,-276.26 -299.72,-126.75 -663.41,-357.89 -902.35,-491.95 -468.16,-262.78 -752,-478.08 -796.86,-558.62 -247.46,-444.29 -416.01,-1735.07 -355.14,-2293.13 60.89,-558.06 471.41,-385.48 750.85,-233.36z"/>
 </g>
</svg>
