<svg xmlns="http://www.w3.org/2000/svg" viewBox="0 0 16.04 32"><defs><style>.cls-1{fill:#e54436;}</style></defs><title>Asset 1</title><g id="Layer_2" data-name="Layer 2"><g id="Layer_1-2" data-name="Layer 1"><path class="cls-1" d="M7.55,0A1.17,1.17,0,0,0,7.1.09l-6.5,3a1,1,0,1,0,.83,1.82l6.5-3A1,1,0,0,0,7.55,0Zm7.5.47a1,1,0,0,0-.45.1l-14,6.5a1,1,0,0,0,.84,1.82l14-6.5A1,1,0,0,0,15.06.47Zm0,4a1.14,1.14,0,0,0-.45.1l-14,6.51a1,1,0,0,0,.84,1.82l14-6.52a1,1,0,0,0-.38-1.91Zm0,4a.87.87,0,0,0-.45.1l-14,6.5a1,1,0,0,0,.84,1.82l14-6.51a1,1,0,0,0-.38-1.91Zm0,4a1,1,0,0,0-.46.09l-5,2.25a1,1,0,0,0-.6.92v4.69s0,0,0,.06H7V17a1,1,0,1,0-2,0v3.5H3.76a.62.62,0,0,0-.63.74l.26,1.52a.91.91,0,0,0,.87.74H7.31l-3.39.64a.5.5,0,1,0,.19,1l8-1.5a.51.51,0,0,0,.41-.55.84.84,0,0,0,.12-.31l.25-1.52a.61.61,0,0,0-.62-.74H11a.13.13,0,0,0,0-.06v-4l4.41-2a1,1,0,0,0-.36-1.92ZM12,25h-.09l-8,1.51a.49.49,0,1,0,.19,1l8-1.5A.5.5,0,0,0,12,25Zm0,2.51h-.09l-8,1.5a.49.49,0,0,0-.4.58.5.5,0,0,0,.59.4l8-1.5a.5.5,0,0,0-.1-1ZM11,30h-.08L5,31a.5.5,0,1,0,.17,1l6-1A.5.5,0,0,0,11,30Z"/></g></g></svg>